<svg xmlns="http://www.w3.org/2000/svg" viewBox="0 0 325.8 95.7">
  <path fill="#356EAC" d="M113.9 15.6h24.9v3.6h-21v12.4h18.8v3.6h-18.8v15.1h-3.9V15.6zM145 45.2l2.4-2.9c3.6 3.3 7.1 4.9 11.9 4.9 4.7 0 7.7-2.5 7.7-5.9v-.1c0-3.2-1.7-5-9-6.6-8-1.7-11.6-4.3-11.6-10v-.1c0-5.4 4.8-9.5 11.4-9.5 5 0 8.7 1.4 12.2 4.3l-2.3 3c-3.2-2.6-6.4-3.8-10-3.8-4.5 0-7.4 2.5-7.4 5.6v.1c0 3.3 1.8 5.1 9.4 6.7 7.7 1.7 11.3 4.5 11.3 9.8v.1c0 5.9-4.9 9.8-11.8 9.8-5.5.1-10-1.7-14.2-5.4zm35-29.6h4l12.6 18.9 12.6-18.9h4v34.6h-3.9v-28l-12.6 18.6h-.2l-12.6-18.5v28H180V15.6zm53.1 3.6h-11.6v-3.6h27.2v3.6H237v31h-4v-31zm23.9-3.6h14.7c4 0 7.1 1.1 9.1 3.1 1.4 1.5 2.2 3.3 2.2 5.5v.1c0 4.5-2.8 6.8-5.5 8 4.1 1.2 7.4 3.6 7.4 8.4v.1c0 5.9-5 9.5-12.6 9.5H257V15.6zM271.1 31c4.7 0 8-2.1 8-6.2v-.1c0-3.4-2.7-5.6-7.7-5.6h-10.5V31h10.2zm1.3 15.7c5.2 0 8.5-2.3 8.5-6.2v-.1c0-3.8-3.2-5.9-9.2-5.9h-10.9v12.2h11.6zM114.1 60.9h6.2v.9H115v3.1h4.7v.9H115v3.8h-1v-8.7zm9.4 0h6.3v.9h-5.3v3h4.7v.9h-4.7v3h5.4v.9h-6.3v-8.7zm9.6 0h3c2.7 0 4.6 1.9 4.6 4.3s-1.9 4.3-4.6 4.3h-3v-8.6zm3 7.8c2.2 0 3.6-1.5 3.6-3.4s-1.4-3.4-3.6-3.4h-2v6.9h2zm7.9-7.8h6.3v.9H145v3h4.7v.9H145v3h5.4v.9H144v-8.7zm9.6 0h3.7c1.1 0 1.9.3 2.5.9.4.4.7 1 .7 1.7 0 1.4-1 2.3-2.4 2.5l2.7 3.5h-1.2l-2.5-3.4h-2.5v3.4h-1v-8.6zm3.6 4.5c1.3 0 2.2-.7 2.2-1.8s-.8-1.7-2.2-1.7h-2.7v3.5h2.7zm9.8-4.5h.9l4 8.7h-1.1l-1-2.3h-4.7l-1 2.3h-1l3.9-8.7zm2.4 5.5l-2-4.4-2 4.4h4zm6.6-4.6h-2.9v-.9h6.8v.9H177v7.8h-1v-7.8zm7.1-.9h1v8.7h-1v-8.7zm4.3 4.4c0-2.4 1.8-4.5 4.4-4.5 2.6 0 4.4 2.1 4.4 4.5s-1.8 4.5-4.4 4.5c-2.6 0-4.4-2.1-4.4-4.5zm7.9 0c0-2-1.4-3.6-3.4-3.6s-3.4 1.6-3.4 3.6 1.4 3.6 3.4 3.6 3.4-1.6 3.4-3.6zm4.3-4.4h.9l5.5 7v-7h1v8.7h-.8l-5.6-7.1v7.1h-1v-8.7zm15.6 4.4c0-2.4 1.8-4.5 4.4-4.5 2.6 0 4.4 2.1 4.4 4.5s-1.8 4.5-4.4 4.5c-2.6 0-4.4-2.1-4.4-4.5zm7.9 0c0-2-1.4-3.6-3.4-3.6s-3.4 1.6-3.4 3.6 1.4 3.6 3.4 3.6 3.4-1.6 3.4-3.6zm4.3-4.4h6.2v.9h-5.3v3.1h4.7v.9h-4.7v3.8h-1v-8.7zm13.8 7.4l.6-.7c.9.8 1.8 1.2 3 1.2s1.9-.6 1.9-1.5c0-.8-.4-1.3-2.3-1.7-2-.4-2.9-1.1-2.9-2.5s1.2-2.4 2.9-2.4c1.3 0 2.2.4 3 1.1l-.6.8c-.8-.7-1.6-.9-2.5-.9-1.1 0-1.8.6-1.8 1.4 0 .8.4 1.3 2.4 1.7 1.9.4 2.8 1.1 2.8 2.5 0 1.5-1.2 2.5-3 2.5-1.4-.1-2.5-.5-3.5-1.5zm11.8-6.5h-2.9v-.9h6.8v.9H254v7.8h-1v-7.8zm9.1-.9h.9l4 8.7h-1.1l-1-2.3h-4.7l-1 2.3h-1l3.9-8.7zm2.4 5.5l-2-4.4-2 4.4h4zm6.6-4.6h-2.9v-.9h6.8v.9h-2.9v7.8h-1v-7.8zm7-.9h6.3v.9h-5.3v3h4.7v.9h-4.7v3h5.4v.9h-6.3v-8.7zm-164 14.9h1l3.2 4.7 3.2-4.7h1v8.7h-1v-7l-3.2 4.6-3.2-4.6v7h-1v-8.7zm15.3 0h.9l4 8.7h-1.1l-1-2.3h-4.7l-1 2.3h-1l3.9-8.7zm2.4 5.5l-2-4.4-2 4.4h4zm4.7 1.9l.6-.7c.9.8 1.8 1.2 3 1.2s1.9-.6 1.9-1.5c0-.8-.4-1.3-2.3-1.6-2-.4-2.9-1.1-2.9-2.5s1.2-2.4 2.9-2.4c1.3 0 2.2.4 3 1.1l-.6.8c-.8-.7-1.6-.9-2.5-.9-1.1 0-1.8.6-1.8 1.4 0 .8.4 1.3 2.4 1.7 1.9.4 2.8 1.1 2.8 2.5 0 1.5-1.2 2.5-3 2.5-1.4-.2-2.5-.6-3.5-1.6zm9 0l.6-.7c.9.8 1.8 1.2 3 1.2s1.9-.6 1.9-1.5c0-.8-.4-1.3-2.3-1.6-2-.4-2.9-1.1-2.9-2.5s1.2-2.4 2.9-2.4c1.3 0 2.2.4 3 1.1l-.6.8c-.8-.7-1.6-.9-2.5-.9-1.1 0-1.8.6-1.8 1.4 0 .8.4 1.3 2.4 1.7 1.9.4 2.8 1.1 2.8 2.5 0 1.5-1.2 2.5-3 2.5-1.3-.2-2.5-.6-3.5-1.6zm12.8-7.4h.9l4 8.7h-1.1l-1-2.3h-4.7l-1 2.3h-1l3.9-8.7zm2.4 5.5l-2-4.4-2 4.4h4zm4.5-1.1c0-2.4 1.7-4.5 4.4-4.5 1.5 0 2.4.4 3.2 1.2l-.6.7c-.7-.6-1.4-1-2.6-1-1.9 0-3.3 1.6-3.3 3.6 0 2.1 1.3 3.6 3.4 3.6 1 0 1.9-.4 2.5-.9v-2.2h-2.6v-.9h3.6v3.5c-.8.7-2 1.3-3.5 1.3-2.8 0-4.5-1.9-4.5-4.4zm11.4-4.4h6.3v.9h-5.3v3h4.7v.9h-4.7v3h5.4v.9h-6.3v-8.7zm16.8.9h-2.9v-.9h6.8v.9h-2.9v7.8h-1v-7.8zm7-.9h1v3.9h5v-3.9h1v8.7h-1v-3.9h-5v3.9h-1v-8.7zm10.6 0h6.3v.9H212v3h4.7v.9H212v3h5.4v.9H211v-8.7zm9.6 0h3.7c1.1 0 1.9.3 2.5.9.4.4.7 1 .7 1.7 0 1.4-1 2.3-2.4 2.5l2.7 3.5h-1.2l-2.5-3.4h-2.5v3.4h-1v-8.6zm3.6 4.4c1.3 0 2.2-.7 2.2-1.8s-.8-1.7-2.2-1.7h-2.7v3.5h2.7zm9.8-4.4h.9l4 8.7h-1.1l-1-2.3h-4.7l-1 2.3h-1l3.9-8.7zm2.4 5.5l-2-4.4-2 4.4h4zm5.4-5.5h3.2c2 0 3.2 1 3.2 2.8 0 1.9-1.6 2.8-3.4 2.8h-2.1v3.1h-1v-8.7zm3.2 4.7c1.4 0 2.4-.8 2.4-1.9 0-1.2-.9-1.9-2.3-1.9h-2.2v3.8h2.1zm8.9.6l-3.6-5.2h1.2l2.9 4.3 3-4.3h1.1l-3.6 5.2v3.4h-1v-3.4zm12.4-5.3h3.7c1 0 1.8.3 2.3.8.4.4.6.8.6 1.4 0 1.1-.7 1.7-1.4 2 1 .3 1.9.9 1.9 2.1 0 1.5-1.3 2.4-3.1 2.4h-3.9v-8.7zm3.5 3.9c1.2 0 2-.5 2-1.6 0-.9-.7-1.4-1.9-1.4h-2.6v3h2.5zm.4 3.9c1.3 0 2.1-.6 2.1-1.5s-.8-1.5-2.3-1.5h-2.7v3.1h2.9zm5.9-3.4c0-2.4 1.8-4.5 4.4-4.5 2.6 0 4.4 2.1 4.4 4.5s-1.8 4.5-4.4 4.5c-2.6-.1-4.4-2.1-4.4-4.5zm7.9 0c0-2-1.4-3.6-3.4-3.6s-3.4 1.6-3.4 3.6 1.4 3.6 3.4 3.6c1.9-.1 3.4-1.6 3.4-3.6zm7-4.4h.9l4 8.7h-1.1l-1-2.3h-4.7l-1 2.3h-1l3.9-8.7zm2.4 5.5l-2-4.4-2 4.4h4zm5.4-5.5h3.7c1.1 0 1.9.3 2.5.9.4.4.7 1 .7 1.7 0 1.4-1 2.3-2.4 2.5l2.7 3.5h-1.2l-2.5-3.4h-2.5v3.4h-1v-8.6zm3.7 4.4c1.3 0 2.2-.7 2.2-1.8s-.8-1.7-2.2-1.7h-2.7v3.5h2.7zm6.5-4.4h3c2.7 0 4.6 1.9 4.6 4.3s-1.9 4.3-4.6 4.3h-3v-8.6zm3.1 7.8c2.2 0 3.6-1.5 3.6-3.4s-1.4-3.4-3.6-3.4h-2v6.9h2zm7.2-.4l.6-.7c.9.8 1.8 1.2 3 1.2s1.9-.6 1.9-1.5c0-.8-.4-1.3-2.3-1.6-2-.4-2.9-1.1-2.9-2.5s1.2-2.4 2.9-2.4c1.3 0 2.2.4 3 1.1l-.6.8c-.8-.7-1.6-.9-2.5-.9-1.1 0-1.8.6-1.8 1.4 0 .8.4 1.3 2.4 1.7 1.9.4 2.8 1.1 2.8 2.5 0 1.5-1.2 2.5-3 2.5-1.3-.2-2.5-.6-3.5-1.6z"/>
  <path fill="#903895" d="M57.9 16.2c-.1-1.4-.1-1.7-.1-1.8V9.8c0-.1 0-2.1-1.4-2.1-1.1 0-1.1 2-1.1 2.1v10.1s0 .3-.2.4c-.1.1-.2.2-.5.2-.5 0-.7-.4-.7-.6V4.7c0-.1-.1-2.1-1.6-2.1-.2 0-.8 0-1.1 1-.2.5-.2 1.1-.2 1.1v13.9s0 .3-.2.4c-.1.1-.3.2-.5.2-.5 0-.7-.4-.7-.6V2.2C49.5 2 49.4 0 47.9 0c-.2 0-.8 0-1.1 1-.2.5-.2 1.1-.2 1.1V19s0 .2-.2.4c-.1.1-.3.2-.5.2-.5 0-.7-.4-.7-.6V5.5c0-.1 0-2.1-1.4-2.1-.2 0-.4.1-.6.2-.5.5-.5 1.5-.5 1.8 0 .1-.1 9.9 0 13.7v.8c0 1.6.1 2.3-.6 2.4-.9 0-2.9-5.5-2.9-5.6-.6-1.8-1.8-3.2-2.8-3.2-.2 0-.3 0-.4.1-1 .4-.4 1.8.6 4 .3.6.6 1.3.8 2 .3.7.8 3.3 1.3 5.8.3 1.5.6 3 .8 3.9.7 3.4 4.1 6.9 9.6 10 6.2-3.4 9.8-7.3 9.7-11v-.4c-.1-2.1-.6-8.6-.9-11.7z"/>
  <path fill="#EE2E33" d="M80.8 22.2c-.7 0-1.4.7-1.7 1l-6.5 7.7s-.2.2-.5.2c-.2 0-.3-.1-.5-.2-.4-.3-.3-.7-.1-.9l9.8-11.6c.1-.1 1.3-1.6.1-2.6-.2-.2-.4-.3-.6-.3-.7 0-1.4.7-1.7 1l-9 10.6s-.2.2-.5.2c-.2 0-.3-.1-.5-.2-.4-.3-.3-.7-.1-.9l10.6-12.5c.1-.1 1.3-1.6.1-2.6-.2-.2-.4-.3-.6-.3-.7 0-1.4.7-1.7 1L66.5 24.7s-.2.2-.5.2c-.2 0-.3-.1-.5-.2-.4-.3-.3-.7-.1-.9l8.7-10.3c.1-.1 1.3-1.6.3-2.5-.2-.1-.3-.2-.5-.2-.7 0-1.4.8-1.7 1.1-.1.1-6.5 7.5-8.9 10.5l-.5.6c-.8 1.1-1.2 1.5-1.7 1.5-.1 0-.2 0-.3-.1-.7-.5 1.4-6 1.4-6.1.6-1.5.7-3 .2-3.8-.2-.3-.4-.6-.7-.6h-.3c-.9 0-1.3 1.6-1.9 3.4-.2.7-.4 1.4-.6 2-.2.7-1.6 3-2.8 5.3-.8 1.4-1.5 2.7-1.9 3.4-1.7 3-1.4 7.9.8 13.9 2.3.5 4.5.8 6.4.8 4.8 0 7-1.5 8.1-2.8.1-.1.1-.2.2-.3 1.4-1.8 5.2-7 7-9.5.9-1.2 1.1-1.5 1.1-1.5l3-3.5c.1-.1 1.3-1.6.3-2.5 0-.3-.1-.4-.3-.4z"/>
  <path fill="#A5CE39" d="M95.3 39.1h-.6L78 42c-.2 0-.6-.2-.6-.6-.1-.5.3-.8.5-.8l13.3-2.3c.1 0 2-.4 1.8-1.7-.1-.7-.9-.8-1.5-.8-.4 0-.7.1-.7.1-.1 0-9.8 1.6-13.5 2.3l-.8.2c-.8.2-1.3.3-1.7.3-.5 0-.7-.3-.8-.5-.2-.9 4.9-3.8 5-3.8 1.4-.8 2.4-1.8 2.6-2.8.1-.4 0-.7-.1-1-.2-.3-.4-.4-.7-.4-.8 0-1.9.8-3.2 1.6-.6.4-1.2.8-1.8 1.1-.6.4-3.1 1.3-5.6 2.2-1.5.6-2.9 1.1-3.6 1.4-3.2 1.2-6.2 5.2-8.3 11.2 5.4 6.8 9.5 7.9 11.5 7.9.3 0 .7 0 1-.1.1 0 .2 0 .3-.1 2.3-.5 8.6-2 11.6-2.8 1.4-.3 1.7-.4 1.8-.4l4.6-.8c.1 0 2.1-.4 1.8-1.7-.1-.7-.9-.8-1.6-.8h-.6l-10 1.7c-.3 0-.6-.2-.6-.6-.1-.5.3-.8.5-.8l15-2.6c.1 0 2.1-.4 1.8-1.9-.1-.8-1-1-1.7-1h-.6l-13.8 2.4c-.2 0-.6-.2-.6-.6-.1-.5.2-.8.5-.8l16-2.7c.1 0 2-.4 1.8-1.9-.1-.8-1-1-1.7-1z"/>
  <path fill="#57335E" d="M90.5 70.9l-14.6-8.5s-.2-.1-.3-.4c0-.1 0-.3.1-.6.2-.3.5-.4.6-.4.2 0 .3.1.3.1L88.3 68s.7.4 1.4.4c.5 0 .8-.2 1.1-.6.1-.2.1-.4.1-.6-.2-.6-1-1.2-1.3-1.4-.1-.1-8.5-5.1-11.9-6.9l-.7-.4c-1.4-.7-2.1-1.1-1.8-1.7.1-.3.4-.3 1-.3 1.4 0 4.5.5 5.3.6.5.1 1 .1 1.5.1 1.6 0 2.7-.6 2.8-1.4.1-1-1.3-1.3-3.7-1.5L80 54c-.7-.1-3.2-1-5.7-1.9-1.5-.5-2.9-1-3.7-1.3-.8-.3-1.7-.4-2.8-.4-3 0-6.6 1.2-10.8 3.7-.2 7.1 1.4 12.1 4.5 14 .1 0 .1.1.2.1h.1c2 1.1 7.8 3.9 10.6 5.3 1.3.6 1.6.8 1.7.8 1.3.8 4 2.3 4 2.3s.8.4 1.5.4c.5 0 .8-.2 1-.6.1-.2.2-.4.1-.6-.2-.6-1-1.2-1.3-1.4l-8.7-5.1s-.2-.1-.3-.4c0-.1 0-.3.1-.6.2-.3.5-.4.6-.4.2 0 .3.1.3.1l13.1 7.6s.7.4 1.4.4c.6 0 1-.2 1.2-.7.2-.2.2-.5.1-.8-.2-.7-1-1.2-1.3-1.4l-12-7s-.2-.1-.3-.4c0-.1 0-.3.1-.6.2-.3.5-.4.6-.4.2 0 .3.1.3.1L89 73.4s.7.4 1.4.4c.6 0 1-.2 1.2-.7.1-.2.2-.5.1-.8-.2-.8-1.2-1.4-1.2-1.4z"/>
  <path fill="#ED6D23" d="M70.9 74.6c-.5-.5-1-1-1.4-1.6-.5-.6-1.8-2.9-3.2-5.1-.8-1.4-1.6-2.6-2-3.4-1.8-3-6.2-5.2-12.5-6.2-4.7 5.3-6.7 10.2-5.5 13.6 0 .1.1.2.1.3.8 2.1 3.5 8 4.8 10.9.6 1.3.7 1.6.7 1.7l1.6 4.4s.6 1.6 1.6 1.6c.1 0 .3 0 .4-.1.2-.1.4-.2.5-.4.3-.6 0-1.6-.1-1.9l-3.4-9.5s-.1-.2 0-.5c.1-.1.2-.3.4-.4.5-.2.8.2.9.4L59 92.7s.6 1.5 1.7 1.5c.2 0 .3 0 .5-.1.3-.1.5-.3.6-.5.3-.7-.1-1.9-.1-1.9l-4.7-13s-.1-.2 0-.5c.1-.1.2-.3.4-.4.1 0 .2-.1.3-.1.4 0 .5.2.6.4l5.6 15.4s.6 1.5 1.7 1.5c.2 0 .3 0 .5-.1.3-.1.5-.3.6-.5.3-.6.1-1.6-.1-1.9l-5.7-15.9s-.1-.2 0-.5c.1-.1.2-.3.4-.4.5-.2.8.2.9.3l4.6 13s.6 1.6 1.6 1.6c.1 0 .3 0 .4-.1.2-.1.4-.2.5-.4.3-.6 0-1.6-.1-1.9 0-.1-3.3-9.4-4.6-12.9l-.3-.7c-.6-1.4-.9-2.2-.2-2.5h.2c.8 0 4.4 4.3 4.4 4.3 1 1.3 2.3 2.1 3.3 2.1.3 0 .6-.1.8-.3.7-.8-.2-1.9-1.9-3.6z"/>
  <path fill="#29A349" d="M32.4 65.2c0 .1-.1.2-.1.3-.7 2.2-2.5 8.5-3.4 11.5-.4 1.3-.4 1.6-.5 1.6-.5 1.4-1.6 4.4-1.6 4.4 0 .1-.7 2 .6 2.5.9.3 1.6-1 1.8-1.5l3.5-9.5c.1-.2.4-.5.9-.3s.5.6.4.8l-5.2 14.3c0 .1-.7 2 .8 2.5.1.1.3.1.4.1.8 0 1.4-1.1 1.6-1.6l4.8-13.1c.1-.1.2-.4.6-.4.1 0 .2 0 .3.1.5.2.5.6.5.8l-5.6 15.4c0 .1-.7 2 .8 2.5.1 0 .3.1.4.1 1 0 1.5-1.6 1.6-1.6l5.8-15.9c.1-.2.4-.5.9-.3s.5.6.4.8l-4.6 12.7c0 .1-.7 1.9.6 2.4.9.3 1.6-1.1 1.8-1.6 0-.1 3.5-9.3 4.7-12.9l.2-.7c.5-1.4.7-2.1 1.2-2.1h.2c.9.2.8 6.2.8 6.2 0 1.6.4 2.9 1 3.6.3.3.6.4.9.4h.1c1-.1 1-1.6.9-3.9 0-.7-.1-1.4-.1-2.1 0-.7.4-3.4.8-5.9.3-1.6.5-3 .6-3.9.6-3.4-1.4-7.9-5.6-12.8-7.3 1.2-12 3.7-13.2 7.1z"/>
  <path fill="#356EAC" d="M25.9 51.3l-.3.2c-1.9 1.2-7.2 5-9.7 6.8-1.2.8-1.5 1-1.5 1.1-1.3.8-4 2.4-4 2.4-.1 0-1.8 1.1-1.1 2.3.2.3.4.4.8.4.7 0 1.5-.5 1.6-.5l8.6-5.2s.1-.1.3-.1c.1 0 .4 0 .6.4.3.4 0 .8-.2.9L8 67.8c-.1 0-1.8 1.1-1 2.4.2.3.5.5.9.5.7 0 1.5-.5 1.5-.5L21.3 63s.1-.1.3-.1c.1 0 .4.1.6.4.3.4 0 .8-.2.9L8 72.8c-.1 0-1.7 1.1-1 2.4.2.3.5.5.9.5.7 0 1.5-.5 1.5-.5L24 66.6s.1-.1.3-.1c.1 0 .4 0 .6.4.3.4 0 .8-.2.9l-11.6 7c-.1 0-1.7 1.1-1.1 2.3.2.3.4.4.8.4.7 0 1.6-.5 1.6-.5.1-.1 8.6-5 11.8-7l.7-.4c1-.6 1.5-.9 1.9-.9.2 0 .4.1.5.2.5.7-3.3 5.3-3.3 5.3-1 1.2-1.6 2.6-1.5 3.6.1.4.2.7.5.9.2.1.3.2.5.2.8 0 1.7-1.3 2.7-2.7.4-.6.8-1.2 1.3-1.7.5-.6 2.5-2.4 4.4-4.1 1.2-1 2.3-2 2.9-2.6 2.6-2.3 3.9-7.1 3.7-13.4-4-2.4-7.7-3.7-10.7-3.7-1.6-.3-2.9 0-3.9.6z"/>
  <path fill="#F6B727" d="M29.8 36.1h-.4c-2.3-.3-8.8-.8-11.9-1.1-1.3-.1-1.7-.1-1.7-.1l-4.6-.7h-.5c-.7 0-1.6.2-1.8 1.1 0 .2 0 .4.1.6.4.5 1.4.8 1.7.9l9.9 1.6s.2 0 .4.2c.1.1.2.3.1.6-.1.4-.4.6-.6.6l-15-2.6h-.4c-.8 0-1.8.2-1.9 1.3 0 .3 0 .5.2.8.3.4 1.3.7 1.6.8l13.7 2.2s.2 0 .4.2c.1.1.2.3.1.6-.1.5-.4.6-.6.6L2.3 41.1h-.4c-.8 0-1.8.2-1.9 1.3 0 .3 0 .5.2.8.5.7 1.7.9 1.7.9l16.7 2.6s.2 0 .4.2c.1.1.2.3.1.6s-.4.5-.7.5L5 45.9h-.4c-.8 0-1.7.2-1.8 1.1 0 .2 0 .4.1.6.4.5 1.4.8 1.7.8.1 0 9.8 1.6 13.6 2.2l.8.1c1.5.2 2.3.3 2.3 1-.1.9-5.9 2-5.9 2-1.6.3-2.9 1-3.4 1.8-.2.3-.3.7-.2 1 .1.3.3.7 1.1.7s1.8-.3 2.9-.6c.7-.2 1.4-.4 2.1-.5.7-.1 3.4-.2 5.9-.3 1.6-.1 3.1-.1 3.9-.2 3.4-.1 7.5-2.9 11.4-7.9-2.3-6.9-5.7-11-9.3-11.6z"/>
  <path fill="#9DD0EF" d="M42.6 27.1c-.1-.1-.1-.2-.2-.2-1.6-1.7-6.2-6.3-8.4-8.5l-1.2-1.2-3-3.5s-.9-1-1.7-1c-.3 0-.5.1-.7.3-.3 0-.4.2-.4.4-.1.6.5 1.5.8 1.8l6.6 7.6s.2.2.1.4c0 .1-.1.3-.3.5-.1.1-.3.2-.5.2-.3 0-.4-.2-.5-.2l-9.9-11.5s-.8-.9-1.7-.9c-.3 0-.6.1-.9.3-.2.2-.3.4-.4.7-.1.8.7 1.7.7 1.7l9.1 10.5s.2.2.1.4c0 .1-.1.3-.3.5-.1.1-.3.2-.5.2-.3 0-.4-.2-.5-.2L18.4 13.1s-.8-.9-1.7-.9c-.3 0-.6.1-.9.3-.2.2-.3.4-.4.7-.1.7.5 1.5.7 1.7l11.1 12.8s.2.2.1.4c0 .1-.1.3-.3.5-.2.1-.3.2-.5.2-.3 0-.4-.2-.5-.2l-8.8-10.2s-.8-.9-1.7-.9c-.3 0-.5.1-.7.3-.2.1-.3.3-.3.5 0 .6.6 1.5.8 1.8.1.1 6.4 7.6 9 10.4l.5.6c1 1.1 1.6 1.7 1.1 2.2-.1.1-.2.1-.3.1-.9 0-5.1-2.3-5.5-2.5-1-.6-2.1-.9-3-.9-.4 0-1.2.1-1.5.7-.4 1 .9 1.6 3 2.7.6.3 1.3.6 1.9 1 .7.4 2.7 2 4.8 3.6 1.2 1 2.4 1.9 3.1 2.4 2.7 2.1 7.6 2.6 13.9 1.3 2.6-6.5 2.7-11.9.3-14.6z"/>
</svg>
