<?xml version="1.0" encoding="UTF-8"?>
<svg id="Layer_1" xmlns="http://www.w3.org/2000/svg" version="1.1" viewBox="0 0 297.2 102.4">
  <!-- Generator: Adobe Illustrator 30.0.0, SVG Export Plug-In . SVG Version: 2.1.1 Build 123)  -->
  <defs>
    <style>
      .st0 {
        fill: #4f5d45;
      }

      .st1 {
        fill: #9dd0ef;
      }

      .st2 {
        fill: #f6b727;
      }

      .st3 {
        fill: #a5ce39;
      }

      .st4 {
        fill: #1f6444;
      }

      .st5 {
        fill: #ed6d23;
      }

      .st6 {
        fill: #ac9b45;
      }

      .st7 {
        fill: #366eac;
      }

      .st8 {
        fill: #ee2e33;
      }

      .st9 {
        fill: #fff;
      }

      .st10 {
        fill: #713d95;
      }

      .st11 {
        fill: #47342b;
      }

      .st12 {
        fill: #57335e;
      }

      .st13 {
        fill: #29a449;
      }

      .st14 {
        fill: #903895;
      }

      .st15 {
        fill: #942f40;
      }

      .st16 {
        fill: #57583e;
      }

      .st17 {
        fill: #a53434;
      }

      .st18 {
        fill: #592828;
      }
    </style>
  </defs>
  <path class="st9" d="M258.2,25.8h1.4c.3,0,.6,0,.9.3.2.2.3.4.3.7h0c0,.4-.3.8-.7.9l.8,1.2h-.6l-.8-1.1h-.7v1.1h-.5v-3.1ZM259.5,27.3c.4,0,.6-.2.6-.5h0c0-.3-.2-.5-.6-.5h-.8v1h.8Z"/>
  <path class="st9" d="M259.4,30.6c-1.8,0-3.2-1.4-3.2-3.2s1.4-3.2,3.2-3.2c1.8,0,3.2,1.4,3.2,3.2s-1.4,3.2-3.2,3.2h0ZM259.4,24.7c-1.5,0-2.6,1.2-2.6,2.6s1.2,2.6,2.6,2.6,2.6-1.2,2.6-2.6c0-1.5-1.2-2.6-2.6-2.6Z"/>
  <polygon class="st9" points="107 24.7 128.5 24.7 128.5 27.8 110.4 27.8 110.4 38.5 126.6 38.5 126.6 41.6 110.4 41.6 110.4 54.7 107 54.7 107 24.7"/>
  <path class="st9" d="M134,50.3l2.1-2.5c3.1,2.8,6.1,4.2,10.3,4.2s6.6-2.1,6.6-5.1h0c0-2.9-1.5-4.5-7.8-5.8-6.9-1.5-10.1-3.7-10.1-8.7h0c0-4.8,4.1-8.3,9.9-8.3,3.9-.1,7.6,1.2,10.6,3.7l-2,2.6c-2.4-2.1-5.4-3.3-8.6-3.3-3.9,0-6.4,2.1-6.4,4.8h0c0,2.9,1.6,4.5,8.1,5.9s9.8,3.9,9.8,8.5h0c0,5.2-4.3,8.6-10.2,8.6-4.6,0-9-1.7-12.3-4.8"/>
  <polygon class="st9" points="164.2 24.7 167.6 24.7 178.6 41 189.5 24.7 192.9 24.7 192.9 54.7 189.5 54.7 189.5 30.4 178.6 46.5 178.4 46.5 167.5 30.4 167.5 54.7 164.2 54.7 164.2 24.7"/>
  <polygon class="st9" points="210.2 27.8 200.1 27.8 200.1 24.7 223.7 24.7 223.7 27.8 213.6 27.8 213.6 54.7 210.2 54.7 210.2 27.8"/>
  <path class="st9" d="M230.9,24.7h12.8c3.4,0,6.1,1,7.8,2.7,1.3,1.3,2,3,1.9,4.8h0c0,3.2-1.9,6-4.8,7,3.6,1.1,6.4,3.1,6.4,7.2h0c0,5.2-4.3,8.3-10.9,8.3h-13.3v-30ZM243.1,38.1c4.1,0,6.9-1.8,6.9-5.4h0c0-3-2.4-5-6.6-5h-9.1v10.3h8.9ZM244.3,51.6c4.5,0,7.4-2,7.4-5.4h0c0-3.3-2.7-5.2-8-5.2h-9.4v10.6h10.1Z"/>
  <polygon class="st9" points="107 63.7 112.4 63.7 112.4 64.4 107.8 64.4 107.8 67.1 111.9 67.1 111.9 67.9 107.8 67.9 107.8 71.2 107 71.2 107 63.7"/>
  <polygon class="st9" points="115.1 63.7 120.6 63.7 120.6 64.4 116 64.4 116 67 120.1 67 120.1 67.8 116 67.8 116 70.4 120.6 70.4 120.6 71.2 115.1 71.2 115.1 63.7"/>
  <path class="st9" d="M123.4,63.7h2.6c2.1-.1,3.8,1.4,4,3.5,0,0,0,.2,0,.3h0c0,2.1-1.7,3.8-3.8,3.8,0,0-.2,0-.2,0h-2.6v-7.5ZM126,70.4c1.6.1,3-1.1,3.1-2.7,0,0,0-.2,0-.2h0c0-1.6-1.2-3-2.8-3,0,0-.2,0-.3,0h-1.8v5.9h1.8Z"/>
  <polygon class="st9" points="132.9 63.7 138.3 63.7 138.3 64.4 133.7 64.4 133.7 67 137.8 67 137.8 67.8 133.7 67.8 133.7 70.4 138.3 70.4 138.3 71.2 132.9 71.2 132.9 63.7"/>
  <path class="st9" d="M141.1,63.7h3.2c.8,0,1.6.2,2.1.8.4.4.6.9.6,1.5h0c0,1.1-.9,2.1-2,2.2l2.3,3.1h-1l-2.2-2.9h-2.2v2.9h-.9v-7.5ZM144.3,67.5c1.1,0,1.9-.6,1.9-1.5h0c0-.9-.7-1.5-1.9-1.5h-2.3v3h2.3Z"/>
  <path class="st9" d="M152.7,63.6h.8l3.5,7.6h-1l-.9-2h-4.1l-.9,2h-.9l3.5-7.6ZM154.8,68.4l-1.7-3.8-1.7,3.8h3.4Z"/>
  <polygon class="st9" points="160.5 64.4 158 64.4 158 63.7 163.9 63.7 163.9 64.4 161.4 64.4 161.4 71.2 160.5 71.2 160.5 64.4"/>
  <rect class="st9" x="166.6" y="63.7" width=".9" height="7.5"/>
  <path class="st9" d="M170.4,67.4h0c-.1-2.1,1.5-3.9,3.6-4s3.9,1.5,4,3.6c0,.1,0,.3,0,.4h0c.1,2.1-1.5,3.9-3.6,4s-3.9-1.5-4-3.6c0-.1,0-.3,0-.4M177.2,67.4h0c0-1.7-1.2-3-2.9-3.1,0,0,0,0-.1,0-1.6,0-2.9,1.3-2.9,2.9,0,0,0,0,0,.1h0c-.3,1.6.8,3.2,2.4,3.5,1.6.3,3.2-.8,3.5-2.4,0-.4,0-.7,0-1.1"/>
  <polygon class="st9" points="181 63.7 181.8 63.7 186.5 69.7 186.5 63.7 187.3 63.7 187.3 71.2 186.6 71.2 181.8 65 181.8 71.2 181 71.2 181 63.7"/>
  <path class="st9" d="M194.5,67.4h0c-.1-2.1,1.5-3.9,3.6-4s3.9,1.5,4,3.6c0,.1,0,.3,0,.4h0c.1,2.1-1.5,3.9-3.6,4s-3.9-1.5-4-3.6c0-.1,0-.3,0-.4M201.3,67.4h0c0-1.7-1.2-3-2.9-3.1,0,0,0,0-.1,0-1.7,0-3,1.4-2.9,3.1,0,0,0,0,0,0h0c-.3,1.6.8,3.2,2.4,3.5,1.6.3,3.2-.8,3.5-2.4,0-.4,0-.7,0-1.1"/>
  <polygon class="st9" points="205 63.7 210.4 63.7 210.4 64.4 205.9 64.4 205.9 67.1 209.9 67.1 209.9 67.9 205.9 67.9 205.9 71.2 205 71.2 205 63.7"/>
  <path class="st9" d="M217,70.1l.5-.6c.7.7,1.6,1.1,2.6,1.1,1,0,1.7-.5,1.7-1.3h0c0-.7-.4-1.1-1.9-1.4-1.7-.4-2.5-.9-2.5-2.2h0c0-1.2,1.1-2.1,2.4-2.1,0,0,0,0,0,0,1,0,1.9.3,2.6.9l-.5.7c-.6-.5-1.4-.8-2.2-.8-1,0-1.6.5-1.6,1.2h0c0,.7.4,1.1,2,1.5s2.4,1,2.4,2.1h0c0,1.3-1.1,2.1-2.6,2.1-1.1,0-2.2-.4-3.1-1.2"/>
  <polygon class="st9" points="227.2 64.4 224.7 64.4 224.7 63.7 230.6 63.7 230.6 64.4 228.1 64.4 228.1 71.2 227.2 71.2 227.2 64.4"/>
  <path class="st9" d="M235.1,63.6h.8l3.4,7.6h-.9l-.9-2h-4.1l-.9,2h-.9l3.4-7.6ZM237.2,68.4l-1.7-3.8-1.7,3.8h3.4Z"/>
  <polygon class="st9" points="242.9 64.4 240.3 64.4 240.3 63.7 246.2 63.7 246.2 64.4 243.7 64.4 243.7 71.2 242.9 71.2 242.9 64.4"/>
  <polygon class="st9" points="248.9 63.7 254.3 63.7 254.3 64.4 249.8 64.4 249.8 67 253.9 67 253.9 67.8 249.8 67.8 249.8 70.4 254.4 70.4 254.4 71.2 248.9 71.2 248.9 63.7"/>
  <polygon class="st9" points="107 76.5 107.9 76.5 110.6 80.6 113.3 76.5 114.2 76.5 114.2 84.1 113.3 84.1 113.3 78 110.6 82 110.6 82 107.8 78 107.8 84.1 107 84.1 107 76.5"/>
  <path class="st9" d="M120.2,76.5h.8l3.4,7.6h-.9l-.9-2h-4.1l-.9,2h-.9l3.4-7.6ZM122.3,81.3l-1.7-3.8-1.7,3.8h3.4Z"/>
  <path class="st9" d="M126.3,83l.5-.6c.7.7,1.6,1.1,2.6,1.1,1,0,1.7-.5,1.7-1.3h0c0-.7-.4-1.1-2-1.4s-2.5-.9-2.5-2.2h0c.1-1.2,1.2-2.1,2.4-2,0,0,0,0,0,0,1,0,1.9.3,2.6.9l-.5.7c-.6-.5-1.4-.8-2.2-.8-1,0-1.6.5-1.6,1.2h0c0,.7.4,1.1,2,1.5,1.6.4,2.4,1,2.4,2.1h0c0,1.3-1.1,2.1-2.6,2.1-1.1,0-2.2-.5-3-1.3"/>
  <path class="st9" d="M134.1,83l.5-.6c.7.7,1.6,1.1,2.6,1.1,1,0,1.7-.5,1.7-1.3h0c0-.7-.4-1.1-1.9-1.4-1.7-.4-2.5-.9-2.5-2.2h0c.1-1.2,1.2-2.1,2.4-2,0,0,0,0,0,0,1,0,1.9.3,2.6.9l-.5.7c-.6-.5-1.4-.8-2.2-.8-1,0-1.6.5-1.6,1.2h0c0,.7.4,1.1,2,1.5s2.4,1,2.4,2.1h0c0,1.3-1.1,2.1-2.6,2.1-1.1,0-2.2-.5-3-1.3"/>
  <path class="st9" d="M145.2,76.5h.8l3.4,7.6h-.9l-.9-2h-4.1l-.9,2h-.9l3.4-7.6ZM147.3,81.3l-1.7-3.8-1.7,3.8h3.4Z"/>
  <path class="st9" d="M151.2,80.3h0c0-2.1,1.6-3.8,3.6-3.9,0,0,.1,0,.2,0,1,0,2,.3,2.8,1l-.6.6c-.6-.6-1.4-.9-2.3-.9-1.6,0-2.9,1.4-2.9,3,0,0,0,0,0,0h0c-.1,1.6,1.1,3,2.7,3.1.1,0,.2,0,.3,0,.8,0,1.5-.3,2.2-.8v-1.8h-2.3v-.8h3v3c-.8.7-1.9,1.1-3,1.2-2,0-3.7-1.5-3.8-3.6,0-.1,0-.2,0-.3"/>
  <polygon class="st9" points="161 76.5 166.5 76.5 166.5 77.3 161.9 77.3 161.9 79.9 166 79.9 166 80.7 161.9 80.7 161.9 83.3 166.5 83.3 166.5 84.1 161 84.1 161 76.5"/>
  <polygon class="st9" points="175.6 77.3 173.1 77.3 173.1 76.5 179 76.5 179 77.3 176.4 77.3 176.4 84.1 175.6 84.1 175.6 77.3"/>
  <polygon class="st9" points="181.6 76.5 182.5 76.5 182.5 79.9 186.8 79.9 186.8 76.5 187.7 76.5 187.7 84.1 186.8 84.1 186.8 80.7 182.5 80.7 182.5 84.1 181.6 84.1 181.6 76.5"/>
  <polygon class="st9" points="190.9 76.5 196.3 76.5 196.3 77.3 191.7 77.3 191.7 79.9 195.8 79.9 195.8 80.7 191.7 80.7 191.7 83.3 196.3 83.3 196.3 84.1 190.9 84.1 190.9 76.5"/>
  <path class="st9" d="M199.1,76.5h3.2c.8,0,1.6.2,2.1.8.4.4.6.9.6,1.5h0c0,1.2-.9,2.2-2.1,2.2l2.3,3.1h-1l-2.2-2.9h-2.1v2.9h-.9v-7.5ZM202.3,80.4c1.1,0,1.9-.6,1.9-1.6h0c0-.9-.7-1.5-1.9-1.5h-2.3v3.1h2.3Z"/>
  <path class="st9" d="M210.7,76.5h.8l3.5,7.6h-1l-.9-2h-4.1l-.9,2h-.9l3.5-7.6ZM212.8,81.3l-1.7-3.8-1.7,3.8h3.4Z"/>
  <path class="st9" d="M217.5,76.5h2.8c1.7,0,2.8.9,2.8,2.4h0c0,1.6-1.4,2.5-2.9,2.5h-1.8v2.7h-.8v-7.5ZM220.2,80.6c1.2,0,2.1-.7,2.1-1.7h0c0-1.1-.8-1.6-2-1.6h-1.9v3.3h1.8Z"/>
  <polygon class="st9" points="228 81.1 224.9 76.5 225.9 76.5 228.4 80.3 231 76.5 232 76.5 228.9 81.1 228.9 84.1 228 84.1 228 81.1"/>
  <path class="st9" d="M238.7,76.5h3.2c.7,0,1.4.2,2,.7.3.3.5.8.5,1.2h0c0,.8-.5,1.5-1.2,1.7.9.3,1.6.8,1.6,1.8h0c0,1.3-1.1,2-2.7,2h-3.3v-7.4ZM241.8,79.9c1,0,1.7-.5,1.7-1.3h0c0-.7-.6-1.2-1.7-1.2h-2.3v2.6h2.2ZM242.1,83.3c1.1,0,1.8-.5,1.8-1.3h0c0-.8-.7-1.3-2-1.3h-2.4v2.7h2.5Z"/>
  <path class="st9" d="M247.2,80.3h0c-.1-2.1,1.5-3.9,3.6-4s3.9,1.5,4,3.6c0,.1,0,.3,0,.4h0c.1,2.1-1.5,3.9-3.6,4s-3.9-1.5-4-3.6c0-.1,0-.3,0-.4M254,80.3h0c0-1.7-1.2-3-2.9-3.1,0,0,0,0-.1,0-1.7,0-3,1.4-2.9,3.1,0,0,0,0,0,0h0c0,1.7,1.2,3,2.9,3.1,0,0,0,0,.1,0,1.7,0,3-1.4,3-3,0,0,0,0,0,0"/>
  <path class="st9" d="M260.1,76.5h.8l3.4,7.6h-.9l-.9-2h-4.1l-.9,2h-.9l3.4-7.6ZM262.2,81.3l-1.7-3.8-1.7,3.8h3.4Z"/>
  <path class="st9" d="M266.9,76.5h3.2c.8,0,1.6.2,2.1.8.4.4.6.9.6,1.5h0c0,1.1-.9,2.1-2,2.2l2.3,3.1h-1l-2.2-2.9h-2.2v2.9h-.9v-7.5ZM270,80.4c1.1,0,1.9-.6,1.9-1.6h0c0-.9-.7-1.5-1.9-1.5h-2.3v3.1h2.3Z"/>
  <path class="st9" d="M275.7,76.5h2.6c2.1-.1,3.8,1.4,4,3.5,0,0,0,.2,0,.3h0c0,2.1-1.7,3.8-3.8,3.8,0,0-.2,0-.2,0h-2.6v-7.5ZM278.3,83.3c1.6.1,3-1.1,3.1-2.7,0-.1,0-.2,0-.3h0c0-1.6-1.2-3-2.8-3,0,0-.2,0-.3,0h-1.8v5.9h1.8Z"/>
  <path class="st9" d="M284.6,83l.5-.6c.7.7,1.6,1.1,2.6,1.1,1,0,1.7-.5,1.7-1.3h0c0-.7-.4-1.1-2-1.4-1.7-.4-2.5-.9-2.5-2.2h0c.1-1.2,1.2-2.1,2.4-2,0,0,0,0,0,0,1,0,1.9.3,2.6.9l-.5.7c-.6-.5-1.4-.8-2.2-.8-1,0-1.6.5-1.6,1.2h0c0,.7.4,1.1,2,1.5s2.5,1,2.5,2.1h0c0,1.3-1.1,2.1-2.6,2.1-1.1,0-2.2-.5-3-1.3"/>
  <path class="st14" d="M49.7,35.3c1.3,1.5,1.7,4.1,1.1,7.2,1.3,1,2.6,2,4.1,2.8,1.3-.7,2.5-1.5,3.7-2.4-.6-2.9-.4-5.3.6-7,.3-.6.9-1.7,1.5-2.8s1.3-2.2,1.7-3.1c0-1.4-.2-2.7-.3-3.6-.1-1.1-.1-1.4-.1-1.4v-3.8c0,0,0-1.7-1.1-1.7-.9,0-.9,1.7-.9,1.7v8.2c0,.1,0,.3-.2.4-.1.1-.3.2-.4.2-.3,0-.6-.2-.6-.5,0,0,0,0,0,0v-12.4c0,0,0-1.7-1.3-1.7h0c-.2,0-.6,0-.9.8,0,.3-.1.6-.2.9v11.3c0,.1,0,.3-.1.3-.1.1-.3.2-.4.2-.3,0-.5-.2-.6-.5,0,0,0,0,0,0v-13.4c0,0,0-1.7-1.3-1.7h0c-.2,0-.6,0-.9.8,0,.3-.1.6-.2.9v13.8c0,.1,0,.3-.1.3-.1.1-.3.2-.4.2-.3,0-.5-.2-.6-.5,0,0,0,0,0,0v-11c0,0,0-1.7-1.1-1.7-.2,0-.3,0-.5.2-.3.4-.5,1-.4,1.5v11.8c0,1.3,0,1.9-.5,2-.7,0-2.3-4.5-2.3-4.5-.5-1.5-1.5-2.6-2.3-2.6-.1,0-.2,0-.4,0-.8.4-.3,1.5.5,3.2.2.5.5,1,.7,1.6.2.7.4,1.4.5,2.1,1.5,1.5,2.9,2.9,3.6,3.7l.2.2"/>
  <path class="st8" d="M62.8,36.4c0,2.1-1.5,4.4-4.2,6.5.3,1.5.7,2.9,1.2,4.3,1.5.3,3.1.5,4.6.6,1.4-2.5,3-4.1,4.8-4.8.7-.3,1.8-.7,3-1.1s2.3-.8,3.1-1.2l2.2-3.1.9-1.2,2.4-2.9c0,0,1.1-1.3.3-2-.1,0-.3-.2-.4-.2-.5.1-1,.4-1.4.8l-5.4,6.2c0,.1-.2.2-.4.2-.1,0-.3,0-.4-.2-.2-.2-.3-.5-.1-.7,0,0,0,0,0,0l8-9.4c0,0,1.1-1.3.1-2.2-.1-.1-.3-.2-.5-.2-.5,0-1,.4-1.4.8l-7.3,8.6c0,.1-.2.2-.4.2-.1,0-.3,0-.4-.2-.2-.2-.3-.5-.1-.8,0,0,0,0,0,0l8.6-10.2s1-1.3,0-2.1c-.1-.1-.3-.2-.5-.2-.5,0-1,.4-1.4.8l-8.9,10.5c0,.1-.2.2-.4.2-.1,0-.3,0-.4-.2-.2-.2-.3-.5-.1-.7,0,0,0,0,0,0l7.1-8.4s1.1-1.3.2-2c-.1-.1-.3-.2-.4-.2-.5,0-1.2.6-1.4.9,0,0-5.3,6.1-7.2,8.5l-.4.5c-.7.9-1,1.2-1.4,1.2,0,0-.2,0-.3,0-.6-.4,1.1-4.9,1.2-5,.4-1,.5-2.1.2-3.1-.1-.3-.3-.4-.6-.5,0,0-.1,0-.2,0-.7,0-1.1,1.3-1.5,2.8-.2.5-.3,1.1-.5,1.7-.2.4-.4.7-.6,1.1.2,2.4.4,4.9.4,6.1v.3"/>
  <path class="st15" d="M59.1,35.9c-1,1.7-1.1,4.1-.6,7,2.7-2.1,4.2-4.4,4.2-6.5v-.3c0-1.2-.2-3.7-.4-6.1-.5.8-1.1,2-1.7,3.1s-1.2,2.2-1.5,2.8"/>
  <path class="st3" d="M79.3,49.7l13.2-2.3c0,0,1.7-.3,1.4-1.6,0-.7-.8-.8-1.4-.8-.2,0-.3,0-.5,0l-13.6,2.4c-.3,0-.5-.2-.5-.5,0-.3,0-.6.4-.6,0,0,0,0,0,0l10.8-1.9c0,0,1.7-.3,1.5-1.4,0-.5-.7-.7-1.2-.7-.2,0-.4,0-.6,0,0,0-8,1.3-11,1.9h-.6c-.5.2-.9.3-1.4.3-.4,0-.6-.2-.6-.4-.2-.7,4-3,4.1-3.1,1-.5,1.8-1.3,2.2-2.3,0-.3,0-.6-.1-.8-.1-.2-.3-.3-.6-.3-.9.2-1.8.7-2.6,1.3-.5.3-1,.6-1.5.9-.5.2-.9.4-1.4.6-1.3,1.8-2.8,3.8-3.5,4.7l-.2.2c-.9,1-2.7,2.2-6.6,2.2h-.6c-.8,1.4-1.4,2.8-1.9,4.3.9,1.2,1.9,2.2,2.9,3.2,1.5-.6,3.2-1,4.8-1,.8,0,1.5.1,2.2.3.7.2,1.8.6,3,1s2.7.9,3.6,1.2l3.2-.8c1.1-.3,1.4-.4,1.4-.4l3.7-.6c0,0,1.7-.3,1.5-1.4,0-.5-.8-.7-1.3-.7-.2,0-.3,0-.5,0l-8.1,1.5c-.3,0-.5-.3-.5-.7,0-.2.2-.4.4-.5l12.1-2.1c0,0,1.7-.3,1.5-1.6,0-.7-.8-.8-1.4-.8-.2,0-.3,0-.5,0l-11.2,2c-.3,0-.5-.2-.5-.5,0-.3,0-.6.4-.6,0,0,0,0,0,0"/>
  <path class="st17" d="M69.2,43c-1.8.7-3.4,2.3-4.8,4.8h.6c3.9,0,5.7-1.2,6.6-2.2l.2-.2c.7-.9,2.2-2.8,3.5-4.7-.9.3-2,.8-3.1,1.2s-2.3.9-3,1.1"/>
  <path class="st12" d="M72.6,58.5c-.3,0-.5,0-.8,0-1.2,0-3.5-.5-6.4-3.2-1.4.5-2.7,1.2-4,2,0,1.5,0,3.1.2,4.6,2.7,1,4.7,2.3,5.7,3.9.4.6,1,1.6,1.6,2.7s1.3,2.1,1.8,2.9l3.3,1.6c1.1.5,1.3.6,1.4.7l3.3,1.9c.4.2.8.3,1.2.3.3,0,.7-.1.8-.4,0-.2.1-.3,0-.5-.2-.5-.6-.9-1-1.2l-7.1-4.1c-.1,0-.2-.2-.2-.3,0-.3.2-.7.5-.7,0,0,0,0,0,0,0,0,.2,0,.2,0l10.6,6.2c.3.2.7.3,1.1.3.4,0,.8-.2,1-.6.1-.2.2-.4,0-.6-.2-.5-.6-.9-1-1.1l-9.8-5.7c-.1,0-.2-.2-.2-.3,0-.2,0-.3,0-.5,0-.2.3-.3.5-.3,0,0,.2,0,.2,0l11.6,6.7c.3.2.7.3,1.1.3.4,0,.8-.2,1-.6.1-.2.2-.4,0-.6-.2-.5-.6-.9-1-1.1l-11.9-7c-.1,0-.2-.2-.2-.3,0-.2,0-.3,0-.5,0-.2.3-.3.5-.3,0,0,.2,0,.2,0l9.5,5.5c.4.2.8.3,1.2.3.4,0,.7-.2.9-.5,0-.1.1-.3,0-.5-.2-.5-.6-.9-1.1-1.1,0,0-6.9-4.1-9.6-5.6l-.6-.3c-1.1-.6-1.7-.9-1.4-1.4,0-.2.4-.2.8-.2,1.4,0,2.9.2,4.3.5.4,0,.8.1,1.2.1,1.3,0,2.2-.5,2.3-1.2,0-.8-1.1-1-3-1.2-.6,0-1.2-.1-1.7-.2-.2,0-.6-.1-1-.3-2.4.6-5,1.2-6.2,1.5h-.2"/>
  <path class="st11" d="M72.4,54.7c-.7-.2-1.5-.4-2.2-.3-1.7,0-3.3.4-4.8,1,2.9,2.7,5.2,3.2,6.4,3.2.3,0,.5,0,.8,0h.2c1.2-.2,3.9-.9,6.2-1.5-.9-.3-2.3-.8-3.6-1.2s-2.3-.8-3-1"/>
  <path class="st5" d="M65.3,68.8h-.2c-1.8-1.1-3-3.5-3.5-6.9-1.5-.5-3-.9-4.5-1.1-1,1.1-1.9,2.3-2.7,3.5,1.5,2.6,2.2,4.9,1.9,6.8,0,.7-.3,1.9-.5,3.2s-.4,2.7-.6,3.7c.5,1.2,1,2.2,1.3,3,.5,1.1.6,1.3.6,1.4l1.3,3.6s.5,1.3,1.3,1.3c.1,0,.2,0,.3,0,.2,0,.3-.2.4-.3.1-.5.1-1.1,0-1.6l-2.8-7.7c0-.1,0-.3,0-.4,0-.1.2-.3.4-.3.3-.1.6,0,.7.3l4.2,11.6s.5,1.3,1.4,1.3c.1,0,.3,0,.4,0,.2,0,.4-.2.5-.4.2-.5.2-1,0-1.5l-3.9-10.7c0-.1,0-.3,0-.4,0-.1.2-.3.4-.3,0,0,.2,0,.2,0,.2,0,.4.1.5.3l4.5,12.5s.5,1.2,1.4,1.2c.1,0,.3,0,.4,0,.2,0,.4-.2.5-.4.2-.5.2-1,0-1.5l-4.7-13c0-.1,0-.3,0-.4,0-.1.2-.2.4-.3.3-.1.6,0,.7.3l3.7,10.3s.5,1.4,1.3,1.4c.1,0,.2,0,.3,0,.2,0,.3-.2.4-.3.1-.5,0-1.1,0-1.6,0,0-2.7-7.6-3.8-10.5l-.2-.6c-.5-1.2-.7-1.8-.2-2h.1c.7,0,3.6,3.5,3.6,3.5.6.9,1.6,1.5,2.7,1.7.2,0,.5,0,.7-.2.6-.6-.2-1.5-1.5-2.9-.4-.4-.8-.8-1.2-1.3-.3-.4-.6-.8-.8-1.2-2.1-1-4.3-2.1-5.3-2.7h0Z"/>
  <path class="st18" d="M67.3,65.8c-1-1.6-2.9-3-5.7-3.9.5,3.3,1.7,5.7,3.5,6.8h.2c0,0,0,0,0,0,1,.6,3.2,1.7,5.3,2.7-.5-.8-1.1-1.9-1.8-2.9s-1.3-2.2-1.6-2.7"/>
  <path class="st13" d="M52.7,71.8c-.7-2,0-4.6,1.8-7.6-.8-1.3-1.7-2.5-2.6-3.6-1.4.2-2.9.5-4.2,1-.4,3-1.3,5.3-2.8,6.6-.5.5-1.4,1.3-2.3,2.1-1.3,1.1-2.5,2.3-3.2,2.9-.3,1-.6,2-.8,2.7-.3,1-.4,1.3-.4,1.3l-1.3,3.5c0,0-.6,1.6.5,2,.7.3,1.3-.8,1.5-1.2l2.8-7.7c.1-.3.4-.4.7-.3.3,0,.4.4.4.6,0,0,0,0,0,0l-4.2,11.6c0,0-.5,1.6.6,2.1,0,0,.2,0,.3,0,.7,0,1.1-.9,1.3-1.3l3.9-10.6c0-.2.3-.3.5-.3,0,0,.2,0,.2,0,.3,0,.5.4.4.7,0,0,0,0,0,0l-4.6,12.6c0,0-.5,1.6.6,2,0,0,.2,0,.3,0,.8,0,1.3-1.3,1.3-1.3l4.7-12.9c.1-.3.4-.4.7-.3.3,0,.4.4.4.7,0,0,0,0,0,0l-3.8,10.4c0,0-.5,1.6.5,2,.7.3,1.3-.9,1.4-1.3,0,0,2.9-7.6,3.9-10.5l.2-.6c.4-1.2.6-1.7,1-1.7h.1c.7.2.6,5,.6,5.1,0,1.1.2,2.1.8,2.9.2.2.4.3.7.3h0c.8,0,.8-1.3.7-3.2,0-.6,0-1.2,0-1.7,0-.4,0-.8.1-1.1-1-2.2-2.1-4.7-2.5-5.8v-.3"/>
  <path class="st16" d="M56.4,71.1c.3-1.9-.4-4.2-1.9-6.8-1.8,2.9-2.5,5.6-1.8,7.6v.3c.5,1.1,1.6,3.6,2.6,5.8.1-1,.3-2.3.6-3.7s.4-2.4.5-3.2"/>
  <path class="st7" d="M41.3,66.3c.7-2,3-3.6,6.3-4.7.2-1.4.2-2.9.2-4.3-1.3-.8-2.7-1.5-4.1-2-2.2,1.9-4.3,3-6.2,3.1-.7,0-1.9,0-3.2.1s-2.5,0-3.4.1l-3,2.1-1.2.9-3.2,2s-1.5.9-.9,1.8c.1.2.4.4.6.3.4,0,.9-.2,1.3-.4l7-4.2c0,0,.2,0,.2,0,.2,0,.4.1.5.3.2.2.1.6-.1.7,0,0,0,0,0,0l-10.5,6.3c0,0-1.4.9-.8,2,.2.3.5.4.8.4.4,0,.8-.2,1.2-.4l9.7-5.8c0,0,.2,0,.2,0,.3,0,.5.4.5.7,0,.1,0,.2-.2.3l-11.5,6.9c0,0-1.4.9-.8,2,.2.3.4.4.8.4.4,0,.8-.2,1.2-.4l11.8-7.1c0,0,.2,0,.2,0,.2,0,.4.1.5.3.2.2.1.6-.1.7,0,0,0,0,0,0l-9.4,5.7c0,0-1.4.9-.9,1.8.1.2.4.3.6.3.5,0,.9-.2,1.3-.4,0,0,7-4.1,9.6-5.7l.5-.3c.8-.5,1.2-.8,1.5-.8.2,0,.3,0,.4.2.4.6-2.7,4.3-2.7,4.3-.8.8-1.2,1.8-1.2,2.9,0,.3.2.5.4.7.1,0,.2.1.4.1.6,0,1.4-1.1,2.2-2.2.3-.5.7-.9,1-1.4.1-.1.2-.3.4-.4.7-2.5,1.6-5.4,2-6.7v-.3"/>
  <path class="st4" d="M42.4,70.3c1-.8,1.8-1.6,2.3-2.1,1.5-1.3,2.4-3.6,2.8-6.6-3.3,1-5.5,2.7-6.3,4.7v.3c-.5,1.3-1.4,4.2-2.1,6.7.7-.7,1.9-1.8,3.2-2.9"/>
  <path class="st2" d="M36.1,55c.9-.5,2-.8,3-.7,1.6,0,3.1.4,4.6,1,1.1-1,2.2-2.2,3.1-3.4-.5-1.4-1.1-2.8-1.8-4.1-3,0-5.3-.5-6.8-1.6-.6-.4-1.5-1.2-2.5-2s-2-1.6-2.8-2.2l-3.6-.3h-1.4c0-.1-3.8-.7-3.8-.7-.1,0-.3,0-.4,0-.6,0-1.3.1-1.5.9,0,.2,0,.4.1.5.4.4.9.6,1.4.7l8.1,1.3c.1,0,.2,0,.3.2,0,.1.1.3,0,.5,0,.3-.2.5-.5.5l-12.3-1.9h-.3c-.6,0-1.4.2-1.6,1,0,.2,0,.4.1.6.4.4.8.6,1.4.7l11.2,1.8c.1,0,.2,0,.3.2,0,.1.1.3,0,.5,0,.3-.3.5-.5.5l-13.3-2.1c0,0-.2,0-.3,0-.6,0-1.4.2-1.6,1,0,.2,0,.4.1.6.4.4.8.6,1.4.7l13.6,2.1c.1,0,.2,0,.3.2,0,.1.1.3,0,.5,0,.3-.3.5-.5.5l-10.9-1.7c-.1,0-.2,0-.4,0-.6,0-1.4.2-1.5.9,0,.2,0,.3.1.5.4.4.9.6,1.4.7,0,0,8,1.3,11,1.8h.6c1.2.2,1.9.3,1.8.9s-4.8,1.6-4.8,1.6c-1.1.1-2.1.6-2.8,1.5-.2.2-.2.5-.1.8,0,.3.2.5.9.5.8,0,1.6-.2,2.4-.5.5-.1,1.1-.3,1.7-.4.5,0,1-.1,1.4-.1,1.9-1.3,4-2.8,4.9-3.4l.3-.2Z"/>
  <path class="st0" d="M37.5,58.3c1.9,0,4-1.1,6.2-3.1-1.4-.6-3-.9-4.6-1-1,0-2.1.2-3,.7l-.2.2c-1,.6-3,2-5,3.4,1,0,2.2,0,3.4-.1s2.5,0,3.2-.1"/>
  <path class="st1" d="M39.2,42.6c2.1.3,4.1,2.2,5.7,5.2,1.5,0,3-.3,4.5-.6.6-1.5,1-3.1,1.3-4.7-2.1-1.8-3.4-3.6-3.8-5.4-.2-.7-.4-1.9-.6-3.1-.2-.9-.3-1.8-.5-2.6l-3.2-3.2-1-1-2.5-2.9c-.4-.4-.9-.7-1.4-.8-.2,0-.4,0-.6.2-.1.1-.2.3-.2.5,0,.5.3,1,.6,1.4l5.3,6.2c0,.1.1.2.1.4,0,.2-.1.3-.2.4-.1,0-.3.2-.4.2-.1,0-.3,0-.4-.2l-8.1-9.4c-.4-.4-.9-.7-1.4-.7-.3,0-.5.1-.7.3-.2.1-.3.3-.3.6,0,.5.3,1,.6,1.4l7.4,8.6c0,0,.1.2.1.3,0,.3-.3.5-.6.6-.1,0-.3,0-.4-.2l-8.7-10.1c-.4-.4-.8-.6-1.4-.7-.3,0-.5.1-.7.3-.2.1-.3.3-.3.6,0,.5.2,1,.6,1.4l9,10.4c0,0,.1.2.1.3,0,.3-.3.5-.6.6-.1,0-.3,0-.4-.2l-7.2-8.3c-.4-.4-.8-.7-1.4-.8-.2,0-.4,0-.6.2-.1.1-.2.3-.2.5,0,.5.3,1,.6,1.4,0,0,5.2,6.2,7.3,8.5l.4.5c.9.9,1.3,1.4.9,1.8,0,0-.2.1-.3,0-.7,0-4.1-1.8-4.4-2-.7-.5-1.6-.7-2.4-.8-.5,0-1,.2-1.2.6-.4.8.7,1.3,2.5,2.2.5.2,1,.5,1.6.8.2.1.6.4,1.1.8,2.4.2,4.9.4,6.1.6h.3Z"/>
  <path class="st10" d="M47,37.1c.3,1.8,1.7,3.6,3.8,5.4.6-3.2.2-5.7-1.1-7.2l-.2-.2c-.7-.8-2.1-2.2-3.6-3.7.2.8.3,1.7.5,2.6.2,1.3.5,2.5.6,3.1"/>
  <path class="st6" d="M38.2,46.2c1.5,1.2,3.8,1.7,6.8,1.6-1.7-3-3.7-4.8-5.7-5.2h-.3c-1.2-.2-3.7-.4-6.1-.6.8.6,1.8,1.4,2.8,2.2s2,1.5,2.5,2"/>
</svg>